# xmcd
#
# Track frame offsets: 
#        150
#        14749
#        28597
#        44863
#        60129
#        74942
#        86865
#        100166
#        116279
#        130434
#        145099
#        158430
#        171940
#        184467
#        198379
#        213011
#        228815
#        243056
#        256335
#        271902
#        284331
#        296464
#        311866
#        326902
#        339396
#
# Disc length: 4738 seconds
#
# Revision: 0
# Processed by: cddbd v1.5.2PL0 Copyright (c) Steve Scherf et al.
# Submitted via: ExactAudioCopy v1.0b3
#
DISCID=79128019
DTITLE=美空ひばり - ミソラヒバリ リズム歌謡を歌う 1949-1967 Disc 1 COCP-33949-50
DYEAR=1900
DGENRE=JPop
TTITLE0=河童ブギウギ 
TTITLE1=ひばりの花売娘
TTITLE2=ピアノとヴァイオリン
TTITLE3=お祭りマンボ
TTITLE4=バイ・バイ・ハワイ 
TTITLE5=春のサンバ
TTITLE6=チャルメラそば屋
TTITLE7=日和下駄
TTITLE8=ふるさとの路
TTITLE9=明るい唄声
TTITLE10=哀愁のサンバ
TTITLE11=エスキモーの娘
TTITLE12=素適なランデブー
TTITLE13=ペンキ塗りたて
TTITLE14=ひばりのチャチャチャ
TTITLE15=ワンワン物語
TTITLE16=別れのトロイカ
TTITLE17=若い季節
TTITLE18=かんざし小判 
TTITLE19=恋愛は自由です
TTITLE20=気まぐれ東京っ子
TTITLE21=ロカビリー剣法
TTITLE22=アンデスの山高帽子
TTITLE23=白いランチで十四ノット
TTITLE24=娘の中の娘 
EXTD=
EXTT0=
EXTT1=
EXTT2=
EXTT3=
EXTT4=
EXTT5=
EXTT6=
EXTT7=
EXTT8=
EXTT9=
EXTT10=
EXTT11=
EXTT12=
EXTT13=
EXTT14=
EXTT15=
EXTT16=
EXTT17=
EXTT18=
EXTT19=
EXTT20=
EXTT21=
EXTT22=
EXTT23=
EXTT24=
PLAYORDER=
